<?xml version="1.0" standalone="no"?>
<!DOCTYPE svg PUBLIC "-//W3C//DTD SVG 20010904//EN"
 "http://www.w3.org/TR/2001/REC-SVG-20010904/DTD/svg10.dtd">
<svg version="1.0" xmlns="http://www.w3.org/2000/svg"
 width="1948.000000pt" height="2004.000000pt" viewBox="0 0 1948.000000 2004.000000"
 preserveAspectRatio="xMidYMid meet">

<g transform="translate(0.000000,2004.000000) scale(0.100000,-0.100000)"
fill="#000000" stroke="none">
<path d="M8895 19290 c-102 -22 -156 -46 -225 -100 -145 -114 -232 -266 -290
-510 -30 -126 -56 -308 -66 -467 -8 -120 9 -110 -198 -124 -295 -20 -568 14
-750 95 -33 14 -61 24 -64 21 -17 -16 93 -191 162 -260 119 -117 231 -168 451
-202 96 -14 125 -15 234 -4 69 7 129 13 135 14 15 3 12 -885 -3 -1043 -13
-147 -32 -273 -41 -283 -4 -5 -36 4 -71 19 -164 69 -283 94 -435 93 -181 0
-297 -34 -378 -109 -47 -43 -76 -107 -76 -164 0 -88 51 -198 120 -260 137
-124 319 -189 530 -189 197 -1 346 49 473 157 42 35 72 54 80 49 6 -4 86 -61
177 -127 348 -254 568 -371 784 -417 141 -30 233 -22 331 29 78 40 134 127
135 209 0 32 -31 143 -45 161 -1 1 -55 -7 -119 -18 -142 -24 -224 -25 -365 -4
-115 16 -309 77 -406 127 -67 34 -315 179 -357 209 l-27 19 20 47 c50 116 82
230 108 392 38 235 44 335 50 789 l6 454 130 66 c295 151 470 309 566 514 50
108 62 177 56 312 -13 287 -124 436 -378 506 -83 23 -148 23 -254 -1z m343
-234 c66 -34 83 -57 98 -134 16 -85 -2 -187 -49 -277 -41 -77 -158 -199 -250
-261 -76 -51 -233 -134 -254 -134 -26 0 12 378 51 518 22 78 75 179 116 222
82 86 197 112 288 66z m-1318 -2750 c133 -33 240 -76 240 -97 0 -21 -49 -88
-91 -123 -77 -65 -163 -82 -307 -60 -180 26 -292 97 -292 185 0 49 33 84 94
100 23 5 46 12 51 14 6 2 55 4 110 4 74 1 125 -5 195 -23z"/>
<path d="M12963 19024 c-18 -7 -40 -25 -49 -40 -34 -51 -62 -494 -83 -1306 -4
-177 -10 -251 -18 -260 -7 -6 -13 -18 -13 -26 0 -8 -6 -28 -14 -45 -8 -18 -40
-97 -72 -177 -58 -147 -167 -379 -199 -422 -16 -22 -17 -9 -11 262 4 157 11
341 16 410 5 69 10 189 10 268 l0 143 -35 15 c-19 8 -35 16 -35 18 0 2 7 23
16 47 20 56 12 145 -18 206 -28 56 -75 98 -147 132 -51 23 -68 26 -176 25
-118 0 -121 0 -182 -34 -112 -63 -197 -156 -267 -293 -65 -125 -112 -275 -136
-438 -14 -95 -27 -144 -83 -299 -113 -317 -177 -444 -209 -412 -24 24 -28 125
-17 452 14 429 9 711 -15 802 -25 92 -71 167 -121 195 -49 28 -75 29 -124 3
-82 -42 -182 -230 -317 -597 -27 -73 -52 -133 -56 -133 -5 0 -8 157 -8 350 l0
350 -40 25 c-31 20 -53 25 -100 25 -73 0 -114 -19 -136 -62 -20 -38 -42 -290
-51 -573 -4 -148 -9 -199 -23 -230 -9 -22 -23 -56 -30 -75 -23 -61 -91 -174
-128 -212 -41 -44 -78 -52 -69 -15 32 126 43 494 19 644 -37 238 -145 429
-282 498 -48 24 -65 28 -147 27 -142 0 -238 -45 -345 -160 -302 -327 -333
-1132 -58 -1496 73 -97 183 -156 289 -156 164 0 294 102 409 320 l38 73 64 14
c88 18 188 88 229 161 5 9 12 15 14 12 3 -3 9 -97 12 -210 7 -189 9 -209 32
-258 32 -69 69 -92 144 -92 69 0 102 22 132 89 18 41 21 70 24 286 4 224 6
245 30 315 14 41 31 89 38 105 8 17 32 75 53 130 81 204 129 295 157 295 29 0
34 -47 23 -237 -17 -318 6 -740 47 -836 41 -98 151 -163 244 -145 55 10 78 31
146 133 49 74 155 272 155 291 1 5 9 27 20 49 21 46 23 42 40 -60 15 -96 47
-209 77 -272 52 -111 166 -172 270 -143 55 16 144 99 209 197 l39 58 3 -120
c2 -66 0 -161 -3 -211 l-7 -91 -108 -102 c-86 -80 -116 -115 -141 -166 -29
-58 -31 -70 -27 -142 5 -100 38 -174 110 -246 126 -125 277 -141 382 -40 87
85 103 158 115 538 l9 294 40 53 c78 106 219 363 284 514 10 25 13 -3 20 -184
8 -199 10 -216 33 -263 36 -70 73 -91 152 -87 116 7 142 60 149 303 5 172 6
179 66 360 83 251 180 482 209 500 6 4 18 0 27 -9 19 -19 19 -55 2 -391 -6
-110 -8 -227 -6 -260 30 -331 36 -358 91 -423 61 -70 163 -101 239 -72 60 23
202 258 291 483 37 93 55 119 55 78 0 -40 42 -193 71 -262 93 -218 224 -329
389 -329 63 0 137 22 190 56 77 49 173 169 225 282 27 59 28 60 77 65 87 11
158 59 252 172 l25 30 1 -188 c0 -220 14 -295 64 -353 25 -29 40 -37 78 -41
74 -9 114 3 144 43 37 47 43 88 53 319 l9 200 70 275 c38 151 80 300 91 332
25 64 44 87 58 66 4 -7 8 -152 8 -323 0 -276 2 -315 18 -360 28 -75 56 -112
117 -153 53 -36 58 -37 145 -37 73 0 99 4 137 23 54 25 116 83 168 157 l35 50
5 -225 c4 -202 7 -230 26 -270 12 -25 34 -56 48 -70 24 -22 37 -25 103 -25 73
0 76 1 103 34 40 48 51 120 60 391 l7 235 46 115 c82 205 163 390 184 418 17
22 24 25 39 16 18 -11 19 -34 20 -445 0 -568 9 -620 120 -718 77 -67 173 -72
238 -13 72 68 183 266 260 467 21 55 45 113 52 129 8 16 14 33 14 39 0 5 6 23
14 40 8 18 27 68 41 112 22 65 26 91 21 137 -5 54 -42 148 -58 148 -4 0 -11
-15 -17 -32 -13 -45 -132 -383 -170 -486 -62 -166 -124 -282 -152 -282 -3 0
-12 14 -19 30 -13 30 -11 196 6 799 11 363 -30 547 -136 619 -72 49 -112 42
-184 -32 -73 -75 -205 -353 -290 -611 -9 -27 -21 -57 -26 -65 -6 -10 -10 103
-10 330 -1 255 -4 349 -13 361 -38 50 -163 66 -225 29 -18 -11 -39 -35 -47
-53 -14 -34 -40 -337 -51 -602 -6 -156 -7 -161 -45 -248 -55 -126 -105 -213
-150 -258 -44 -44 -49 -46 -78 -21 -36 30 -43 123 -39 577 3 451 1 472 -48
547 -28 43 -88 78 -135 78 -40 0 -90 -31 -127 -78 -59 -75 -95 -165 -158 -392
-8 -30 -19 -68 -24 -85 -4 -16 -16 -58 -26 -93 -11 -42 -20 -59 -25 -50 -5 7
-9 156 -9 330 l0 318 -40 25 c-66 42 -187 32 -229 -19 -18 -22 -38 -162 -45
-321 -14 -307 -27 -450 -43 -490 -63 -153 -87 -201 -133 -263 -35 -46 -83 -82
-95 -70 -3 3 1 52 10 109 78 503 -39 938 -284 1055 -46 22 -68 26 -142 26
-134 -1 -233 -44 -330 -143 -48 -49 -130 -175 -144 -220 -4 -13 -11 -28 -15
-34 -20 -28 -73 -231 -85 -325 -9 -78 -20 -115 -82 -290 -99 -281 -149 -398
-191 -450 -20 -24 -21 -24 -39 -7 -17 17 -18 37 -13 315 3 163 5 425 5 582 -1
281 -1 286 -28 371 -34 109 -71 161 -131 184 -134 52 -190 -43 -408 -692 -29
-84 -55 -153 -59 -153 -4 0 -6 118 -3 263 2 144 6 497 8 783 l5 521 -22 20
c-50 44 -139 56 -204 27z m-3299 -896 c26 -43 46 -123 61 -253 15 -126 21
-386 9 -397 -3 -4 -17 0 -32 8 -96 50 -178 -51 -155 -191 11 -63 58 -170 107
-242 23 -35 28 -50 23 -80 -20 -123 -83 -265 -127 -288 -80 -41 -136 32 -176
230 -28 137 -26 519 3 710 39 250 94 414 163 486 30 31 44 39 73 39 27 0 40
-6 51 -22z m2559 -8 c83 -98 9 -280 -131 -324 -19 -6 -21 -10 -11 -23 17 -20
64 -43 88 -43 26 0 29 -12 19 -84 -4 -34 -11 -188 -16 -343 l-8 -281 -43 -87
c-49 -96 -122 -185 -152 -185 -28 0 -45 48 -58 162 -43 383 36 982 152 1160
52 79 118 99 160 48z m2543 -23 c36 -80 54 -224 54 -439 0 -104 -3 -188 -7
-188 -5 0 -17 7 -27 15 -50 38 -127 -4 -147 -78 -24 -88 18 -231 101 -352 37
-53 36 -66 -6 -200 -33 -104 -59 -149 -99 -171 -28 -15 -35 -15 -60 -3 -83 40
-124 192 -132 489 -10 350 37 656 128 846 45 95 85 134 135 134 33 0 37 -4 60
-53z m-2626 -2054 c-1 -116 -19 -256 -36 -275 -22 -24 -30 -23 -59 7 -22 21
-25 33 -25 97 0 59 5 81 25 117 28 49 76 109 88 110 4 1 7 -25 7 -56z"/>
<path d="M10685 16471 c-181 -54 -327 -191 -404 -381 -12 -30 -26 -64 -31 -75
-43 -102 -92 -377 -106 -597 -4 -60 -12 -112 -18 -116 -20 -15 -191 -32 -326
-32 -148 0 -342 21 -452 49 -72 19 -92 26 -177 63 -24 11 -45 18 -47 16 -5 -5
55 -118 89 -168 123 -179 294 -272 552 -301 85 -9 135 -9 220 0 61 6 119 11
129 11 18 0 19 -14 13 -477 -6 -470 -17 -662 -48 -799 -10 -43 -16 -54 -28
-50 -9 2 -59 21 -111 42 -150 58 -261 77 -410 71 -180 -8 -280 -41 -354 -115
-38 -38 -66 -106 -66 -162 0 -49 26 -134 55 -180 62 -98 224 -201 380 -241 93
-23 305 -28 401 -9 85 17 229 90 296 150 56 49 63 52 93 28 52 -42 268 -197
363 -260 383 -255 683 -341 880 -253 64 28 125 85 142 131 30 78 -5 263 -47
250 -10 -3 -61 -12 -113 -21 -259 -41 -526 8 -795 147 -71 37 -333 196 -339
206 -2 4 9 38 25 75 55 129 94 310 130 602 7 57 15 296 18 554 l6 454 130 66
c72 37 155 83 185 103 351 228 501 535 420 861 -49 198 -140 296 -329 357 -83
26 -239 26 -326 1z m401 -236 c70 -41 79 -64 79 -190 0 -106 -2 -113 -36 -185
-43 -89 -98 -155 -196 -236 -72 -60 -255 -167 -305 -180 l-28 -6 0 58 c0 85
30 325 53 419 45 189 145 322 256 341 20 3 41 7 46 9 22 9 92 -7 131 -30z
m-1418 -2725 c86 -11 193 -42 271 -77 31 -14 57 -27 59 -28 7 -6 -32 -60 -72
-103 -73 -77 -101 -87 -256 -87 -138 0 -182 9 -279 59 -72 38 -117 118 -92
165 35 65 189 94 369 71z"/>
<path d="M15431 16353 c-52 -26 -67 -74 -76 -245 l-7 -146 -47 -7 c-64 -10
-81 -21 -81 -53 0 -42 20 -61 70 -70 43 -8 45 -9 44 -42 0 -19 -7 -350 -14
-735 -18 -1012 -9 -1120 101 -1220 74 -66 154 -83 216 -45 64 39 172 215 284
465 l23 50 7 -65 c20 -185 31 -259 45 -301 41 -126 186 -204 281 -151 80 43
207 258 308 520 16 39 31 72 34 72 4 0 15 -37 25 -82 24 -104 85 -256 132
-327 107 -161 289 -248 445 -211 75 18 105 35 173 99 156 149 275 345 410 681
25 64 46 125 46 137 0 36 14 34 60 -11 25 -23 117 -105 205 -182 217 -191 275
-268 275 -366 0 -89 -72 -193 -142 -204 -43 -7 -120 27 -147 65 -33 47 -54
117 -47 156 9 46 64 102 135 136 l54 27 -51 54 c-73 78 -128 103 -223 103 -65
0 -81 -4 -117 -27 -22 -15 -54 -49 -69 -75 -25 -42 -28 -58 -28 -133 0 -116
34 -201 116 -291 144 -156 426 -212 615 -123 137 65 213 208 201 378 -15 213
-113 359 -380 565 -207 160 -264 239 -254 352 7 78 81 219 154 294 47 48 59
55 93 55 51 0 65 -22 80 -119 25 -161 -40 -369 -126 -401 -34 -13 -30 -27 17
-71 57 -52 113 -73 188 -67 118 8 213 102 247 243 15 66 16 77 1 150 -56 272
-246 425 -529 425 -136 0 -245 -38 -319 -112 -140 -141 -201 -435 -124 -606
l28 -62 -58 -167 c-101 -295 -181 -438 -325 -584 -94 -96 -162 -120 -243 -85
-72 31 -128 133 -163 297 -27 125 -25 447 4 629 46 295 136 505 231 538 44 15
72 -4 99 -68 20 -48 22 -68 19 -150 -3 -65 -11 -113 -26 -152 -23 -60 -98
-152 -131 -163 -26 -8 -25 -17 6 -55 39 -46 94 -70 159 -70 189 0 320 246 259
484 -35 137 -123 245 -234 288 -79 30 -223 30 -302 -1 -119 -46 -230 -153
-306 -295 -59 -111 -115 -287 -128 -406 -7 -70 -133 -458 -184 -565 -5 -11
-19 -45 -32 -75 -31 -75 -57 -119 -79 -130 -50 -27 -53 43 -30 897 7 287 10
527 6 533 -26 42 -155 63 -220 36 -67 -28 -75 -60 -105 -436 -33 -420 -30
-396 -80 -545 -48 -140 -92 -262 -109 -300 -48 -107 -75 -155 -94 -174 -22
-20 -25 -20 -38 -5 -12 14 -14 128 -11 708 1 380 5 764 8 853 l6 161 125 4
c123 3 125 3 149 31 29 34 29 38 5 68 -18 22 -28 24 -148 29 l-128 5 0 170 c0
96 -4 177 -10 186 -29 47 -156 65 -224 32z"/>
<path d="M13778 16110 c-20 -11 -47 -34 -60 -52 -20 -29 -23 -44 -23 -133 0
-91 3 -104 27 -146 104 -177 328 -117 328 89 0 109 -47 195 -131 238 -58 29
-92 30 -141 4z"/>
<path d="M16178 16110 c-20 -11 -47 -36 -60 -57 -20 -33 -23 -51 -23 -128 1
-72 5 -98 22 -131 62 -118 201 -157 274 -77 51 56 63 85 63 153 0 105 -57 204
-139 241 -51 24 -90 23 -137 -1z"/>
<path d="M6370 15600 l-1025 -5 -6 -265 c-4 -146 -7 -376 -8 -512 l-1 -248
-272 -2 -273 -3 -6 -265 c-4 -146 -7 -558 -8 -916 0 -358 -4 -671 -7 -696 l-6
-45 -174 73 c-314 132 -595 219 -899 278 -265 52 -360 60 -680 60 -297 1 -301
0 -399 -27 -209 -58 -319 -133 -378 -255 -35 -75 -47 -169 -29 -225 32 -97
133 -178 285 -226 129 -42 386 -95 652 -136 778 -120 1073 -227 1507 -548
l117 -87 0 -111 0 -111 -82 45 c-443 241 -934 443 -1303 536 -364 91 -558 115
-930 115 -298 1 -301 0 -400 -27 -214 -60 -336 -147 -386 -275 -27 -70 -35
-158 -20 -205 58 -175 281 -261 937 -362 490 -76 772 -146 1034 -259 168 -73
263 -133 560 -355 107 -80 280 -207 385 -281 l190 -136 3 -97 3 -97 -1594 0
-1594 0 -7 -42 c-3 -24 -9 -110 -12 -193 -8 -169 0 -213 62 -342 29 -61 51
-87 150 -180 75 -69 136 -137 170 -188 l54 -80 -489 -3 -488 -2 -7 -43 c-3
-23 -9 -112 -12 -197 -7 -155 -7 -155 24 -243 45 -129 69 -163 197 -282 91
-86 129 -130 185 -216 95 -147 170 -218 290 -276 l95 -45 330 -332 c182 -182
348 -343 370 -357 22 -14 66 -41 98 -60 33 -19 105 -79 162 -135 94 -93 106
-109 158 -215 76 -155 96 -221 106 -347 13 -155 60 -279 183 -476 110 -176
220 -296 436 -474 177 -148 249 -197 356 -247 98 -46 126 -62 301 -170 189
-118 319 -172 465 -195 282 -44 531 195 723 696 62 162 88 204 152 250 80 56
132 68 254 58 58 -4 216 -9 351 -9 192 -1 252 -4 277 -15 45 -21 651 -623 700
-695 47 -71 235 -400 289 -506 20 -41 74 -168 120 -282 121 -304 144 -341 364
-579 98 -106 120 -136 158 -218 59 -125 84 -160 225 -314 66 -72 125 -139 132
-150 9 -14 15 -79 18 -196 7 -239 32 -322 150 -507 25 -39 71 -131 102 -205
66 -156 141 -301 196 -378 21 -30 75 -87 119 -126 67 -60 101 -81 217 -134
217 -99 427 -206 558 -283 245 -145 326 -164 540 -132 l118 18 171 -86 c185
-93 258 -117 359 -117 164 0 377 113 437 231 36 69 61 181 67 294 5 101 -15
280 -54 486 l-5 26 85 -5 c100 -5 189 17 300 75 157 83 221 205 234 448 7 139
-31 408 -83 588 -54 188 -114 441 -121 511 -3 35 -2 99 1 142 l7 79 92 90 c51
50 135 120 187 158 100 71 324 190 475 252 137 57 460 221 545 278 161 108
518 405 710 592 171 166 298 270 406 333 39 22 151 68 250 102 203 70 226 82
288 151 53 59 70 107 91 259 12 87 22 124 41 155 14 22 41 65 60 95 62 98 77
153 76 267 l-1 101 96 33 c206 71 256 141 293 413 11 78 17 96 56 152 61 89
100 170 113 235 10 48 8 85 -13 253 -30 237 -29 251 50 420 88 188 131 304
144 389 17 105 8 291 -19 384 -28 98 -98 253 -166 369 -86 145 -95 169 -95
254 -1 151 -31 228 -166 419 l-74 104 0 346 0 347 33 24 c299 222 400 286 564
359 265 118 507 180 1042 266 672 107 865 179 936 348 43 104 -12 271 -122
367 -47 41 -154 91 -253 118 -143 39 -216 45 -496 40 -153 -3 -257 -1 -244 4
101 37 399 99 719 149 301 47 550 99 679 141 242 80 336 218 273 400 -50 144
-139 222 -326 283 -133 43 -232 55 -460 55 -532 0 -1034 -109 -1596 -346 -399
-168 -712 -335 -1203 -641 -171 -107 -203 -123 -228 -118 -44 10 -343 196
-531 330 -66 47 -132 66 -257 72 -91 5 -114 2 -170 -17 -69 -23 -101 -25 -257
-15 -87 6 -110 4 -165 -13 -34 -11 -83 -24 -108 -28 -25 -3 -63 -13 -85 -21
-22 -9 -88 -18 -147 -22 -100 -7 -113 -10 -190 -49 -46 -23 -89 -42 -96 -42
-7 0 -49 20 -95 44 -91 49 -162 72 -252 81 -33 3 -102 13 -154 22 -121 20
-217 13 -307 -23 -61 -24 -72 -26 -109 -15 -22 6 -74 19 -115 27 -41 9 -104
32 -141 50 -36 19 -87 38 -113 43 -50 9 -166 -1 -223 -20 -31 -10 -34 -8 -120
76 -103 101 -218 176 -308 200 -68 19 -86 17 -215 -19 -73 -21 -179 -19 -265
5 -38 10 -139 37 -224 59 -85 22 -162 46 -170 53 -9 6 -45 36 -81 66 -172 144
-242 171 -441 171 l-127 0 -37 41 c-20 22 -50 62 -66 87 l-30 47 1 1175 c0
646 0 1201 0 1233 l0 57 -832 -2 c-458 -2 -1294 -5 -1858 -8z m-3074 -2841
c367 -36 727 -128 1109 -282 463 -187 829 -386 1500 -817 720 -462 1027 -619
1565 -801 418 -142 707 -185 930 -140 138 29 337 97 535 183 88 39 189 81 225
95 l65 25 120 -18 c171 -26 282 -23 370 9 39 14 97 35 130 47 33 12 70 19 85
16 14 -3 86 -19 160 -37 194 -45 306 -44 500 1 80 19 161 34 180 34 19 0 76
-16 125 -37 156 -62 211 -66 480 -26 91 14 78 17 380 -114 194 -84 424 -160
549 -182 217 -39 484 3 891 139 547 183 859 343 1630 838 571 367 931 566
1330 736 315 134 535 206 820 266 278 60 389 71 690 71 252 0 275 -2 350 -23
123 -35 197 -84 169 -112 -36 -36 -343 -106 -724 -165 -548 -85 -867 -173
-1163 -321 -153 -76 -247 -138 -480 -312 -122 -91 -314 -232 -427 -312 -113
-81 -344 -247 -514 -370 -354 -255 -664 -463 -863 -578 -260 -150 -564 -294
-750 -356 -48 -16 -83 -33 -83 -41 0 -7 18 -49 41 -94 47 -95 158 -216 252
-275 91 -58 223 -121 341 -162 59 -21 119 -49 132 -61 94 -87 -95 -310 -365
-428 -140 -62 -214 -76 -416 -82 l-180 -5 -93 31 c-168 56 -368 140 -578 241
-114 55 -210 100 -213 100 -13 0 -92 -128 -117 -190 l-27 -65 -2 -325 c-2
-372 2 -345 -101 -577 -87 -198 -136 -288 -304 -563 -292 -480 -355 -659 -367
-1035 -8 -246 22 -457 128 -890 35 -146 36 -159 4 -215 -67 -118 -95 -223 -95
-350 0 -64 -2 -71 -39 -117 -70 -87 -225 -239 -281 -275 -57 -37 -110 -51
-385 -99 -144 -25 -213 -24 -375 5 -288 52 -308 57 -357 90 -54 35 -224 205
-282 281 -37 48 -39 53 -45 150 -7 125 -23 184 -75 281 -23 41 -41 86 -41 100
0 13 25 131 55 262 88 381 99 463 100 707 0 231 -16 363 -62 510 -39 125 -148
341 -288 570 -199 327 -222 368 -306 557 -120 271 -112 233 -115 609 -3 321
-3 327 -28 387 -34 86 -107 194 -126 188 -8 -2 -118 -54 -245 -114 -126 -60
-311 -141 -410 -178 l-180 -69 -200 1 c-227 1 -284 11 -445 83 -110 49 -193
105 -275 185 -97 95 -130 184 -87 235 10 12 68 40 138 65 226 82 359 159 476
278 56 57 87 99 117 159 23 45 41 87 41 94 0 8 -35 25 -82 41 -208 69 -563
241 -831 403 -164 99 -446 289 -677 455 -107 77 -337 242 -510 366 -173 125
-413 299 -532 389 -242 180 -326 235 -476 310 -305 153 -621 241 -1177 326
-457 71 -725 137 -725 180 0 34 99 81 227 109 84 18 420 21 579 5z m5779 -46
c24 -14 66 -19 205 -24 96 -3 176 -7 177 -8 1 0 60 -47 130 -104 71 -57 142
-108 158 -115 17 -6 109 -32 205 -57 96 -24 200 -52 230 -61 32 -10 107 -18
180 -21 111 -4 134 -2 207 20 l83 24 52 -30 c29 -17 102 -79 161 -139 59 -60
123 -116 142 -124 47 -19 108 -17 183 6 90 28 126 26 207 -15 39 -19 97 -40
130 -46 33 -6 94 -22 135 -36 94 -32 149 -28 259 17 l82 34 82 -13 c45 -7 120
-17 167 -22 74 -7 100 -16 200 -66 99 -49 125 -58 183 -61 76 -5 144 13 211
55 34 23 57 28 141 33 55 4 132 16 170 28 202 61 261 68 365 47 95 -19 135
-16 221 20 99 42 182 33 264 -29 27 -21 69 -48 95 -61 25 -13 78 -45 117 -72
39 -27 101 -62 137 -77 36 -16 66 -31 66 -35 0 -11 -436 -270 -580 -345 -178
-92 -328 -159 -538 -237 -445 -166 -759 -233 -948 -200 -131 23 -354 103 -616
220 -75 34 -171 69 -213 78 -74 16 -82 16 -238 -6 -97 -13 -176 -19 -197 -15
-19 4 -71 23 -115 43 -73 33 -88 36 -170 36 -81 -1 -103 -5 -215 -45 -123 -44
-127 -45 -250 -45 -123 0 -127 1 -250 45 -112 40 -134 44 -215 45 -82 0 -97
-3 -170 -36 -114 -51 -135 -53 -306 -29 -165 25 -214 22 -320 -13 l-67 -23 -6
44 c-3 25 -6 364 -6 755 l0 709 23 -16 c12 -9 36 -24 52 -33z m5985 -2373 l-1
-580 24 -52 c13 -29 59 -102 101 -163 108 -152 108 -153 117 -285 8 -138 18
-166 117 -340 86 -152 134 -257 157 -345 19 -73 20 -228 3 -242 -11 -9 -3407
-37 -3416 -28 -1 1 12 51 29 111 32 109 32 109 38 401 l6 292 135 -77 c214
-123 402 -207 530 -237 86 -20 361 -20 493 0 382 58 751 327 832 609 26 91 18
215 -20 284 -15 28 -44 64 -63 78 -29 23 -179 95 -387 187 -27 12 -76 40 -110
61 -52 34 -57 40 -40 47 11 4 78 31 149 59 70 28 169 71 219 96 209 106 608
360 942 602 77 56 141 102 143 102 1 0 2 -261 2 -580z"/>
<path d="M12755 15594 c-222 -54 -410 -321 -480 -685 -9 -46 -21 -107 -26
-134 -12 -65 -87 -231 -135 -301 -36 -52 -98 -103 -111 -91 -3 4 0 34 6 69 45
257 38 546 -19 747 -48 170 -157 326 -257 369 -104 44 -238 37 -351 -19 -240
-118 -398 -487 -397 -929 1 -208 19 -324 78 -495 54 -154 149 -279 259 -337
37 -20 57 -23 148 -23 96 0 110 2 160 28 97 51 195 164 265 308 27 55 29 57
76 62 69 8 137 47 204 116 l59 60 21 -127 c34 -201 75 -311 141 -375 51 -50
109 -71 178 -65 72 6 120 40 196 137 33 42 68 87 80 101 l20 25 -6 -215 -7
-215 -66 -59 c-167 -150 -210 -213 -218 -321 -19 -232 247 -465 428 -375 134
67 173 163 183 450 4 96 9 235 12 308 l6 132 62 93 c100 147 188 311 255 471
6 16 15 25 19 22 4 -4 10 -46 14 -94 16 -194 27 -261 53 -315 57 -121 185
-181 272 -127 41 25 133 148 188 253 56 106 149 332 186 452 5 17 13 39 18 50
17 35 51 144 51 162 0 12 18 0 58 -38 31 -31 111 -103 177 -160 160 -138 214
-193 260 -262 66 -99 58 -196 -24 -290 -41 -46 -85 -56 -147 -32 -65 25 -124
114 -124 188 0 57 56 121 143 161 20 9 37 23 37 30 0 19 -100 109 -147 131
-48 24 -140 31 -187 15 -49 -16 -92 -54 -119 -104 -18 -34 -22 -57 -22 -136 0
-88 3 -100 35 -164 98 -197 332 -312 565 -277 103 15 173 50 234 116 113 125
130 316 44 508 -51 113 -130 199 -324 352 -201 159 -259 233 -259 334 0 86 78
240 163 324 41 40 54 47 87 47 57 0 73 -34 78 -171 6 -166 -37 -296 -114 -341
-19 -11 -34 -26 -34 -33 0 -7 17 -27 37 -45 150 -133 348 -73 423 128 72 191
-45 464 -241 563 -143 72 -374 78 -502 13 -87 -44 -172 -151 -210 -264 -45
-136 -47 -309 -4 -402 l25 -57 -58 -168 c-132 -382 -189 -520 -235 -563 -32
-30 -41 -20 -50 55 -10 82 -10 94 20 1158 3 114 1 195 -5 206 -23 44 -161 67
-220 36 -67 -35 -69 -44 -100 -420 -24 -293 -40 -423 -54 -456 -9 -19 -41 -99
-72 -179 -57 -149 -189 -430 -219 -465 -18 -23 -18 24 9 730 7 193 11 356 8
363 -2 7 -20 19 -39 27 l-34 14 16 37 c21 51 19 143 -4 197 -40 94 -118 152
-243 182 -77 18 -115 18 -193 -1z m-1122 -146 c34 -47 56 -141 67 -282 11
-146 13 -386 3 -386 -5 0 -17 7 -27 15 -55 42 -133 -2 -156 -86 -23 -82 20
-224 103 -347 l37 -53 -25 -95 c-42 -161 -94 -244 -153 -244 -26 0 -69 35 -88
72 -106 204 -98 837 15 1184 40 123 78 192 125 226 50 36 70 35 99 -4z m1293
7 c27 -18 54 -75 54 -112 0 -82 -60 -177 -135 -213 -25 -12 -47 -26 -50 -31
-7 -11 51 -48 89 -56 l29 -6 -7 -76 c-3 -42 -11 -204 -16 -360 l-11 -285 -47
-89 c-49 -94 -117 -177 -145 -177 -40 0 -60 82 -73 290 -7 125 9 425 31 585
42 301 115 494 199 531 40 17 57 17 82 -1z m-73 -2197 c-5 -143 -17 -205 -44
-213 -50 -16 -85 45 -77 133 6 57 29 109 77 171 43 55 49 43 44 -91z"/>
<path d="M784 4591 c-88 -40 -146 -153 -165 -319 -6 -53 -13 -103 -15 -111 -7
-22 -264 -10 -331 16 -59 23 -60 17 -14 -48 53 -76 134 -111 260 -111 l83 -1
-4 -236 c-3 -130 -8 -243 -12 -253 -7 -15 -11 -15 -52 3 -57 26 -166 35 -223
19 -140 -38 -115 -190 41 -246 91 -33 244 -12 287 39 7 10 19 17 27 17 7 0 50
-27 96 -60 180 -130 330 -178 406 -131 42 27 54 58 41 106 -9 33 -13 36 -36
30 -54 -13 -178 -6 -236 14 -62 22 -157 70 -196 100 l-24 18 21 64 c32 101 34
121 41 354 l6 220 30 15 c175 88 255 187 255 315 0 64 -23 128 -56 157 -55 49
-158 62 -230 29z m199 -89 c43 -37 6 -157 -66 -216 -41 -33 -126 -81 -132 -74
-2 2 1 44 6 93 10 101 44 184 81 203 47 23 79 21 111 -6z m-502 -1038 c77 -23
80 -29 35 -71 -37 -34 -41 -35 -97 -30 -73 6 -123 34 -127 68 -6 48 85 64 189
33z"/>
<path d="M2170 4394 c-9 -9 -15 -55 -17 -122 -5 -147 -7 -152 -44 -152 -102 0
-191 -112 -224 -282 -17 -89 -78 -266 -100 -287 -18 -19 -18 -25 -15 216 1
142 -1 174 -13 178 -10 5 -13 18 -9 53 3 40 0 51 -21 74 -31 33 -94 53 -141
44 -82 -16 -139 -96 -197 -280 -50 -159 -86 -232 -142 -291 -49 -50 -84 -58
-116 -26 -23 23 -51 110 -51 156 0 29 2 31 34 27 61 -7 151 57 190 136 27 52
31 125 12 175 -57 151 -241 129 -320 -36 -35 -75 -50 -164 -43 -265 9 -151 63
-253 151 -287 88 -34 155 12 238 162 l36 66 7 -39 c22 -131 60 -194 116 -194
33 0 79 37 111 88 l22 36 8 -39 c11 -52 43 -85 83 -85 40 0 56 17 111 122 32
62 43 76 44 57 0 -47 31 -131 57 -155 49 -46 109 -23 163 63 l27 43 6 -41 c7
-53 40 -89 83 -89 39 0 68 33 120 137 l33 68 1 -45 c1 -95 40 -160 96 -160 30
0 75 58 119 152 l34 73 0 -86 c1 -97 21 -139 66 -139 42 0 56 38 64 162 7 100
12 124 47 207 22 52 45 96 51 98 7 3 12 -56 15 -189 3 -154 7 -199 21 -224 18
-35 65 -59 96 -49 25 8 71 72 105 146 20 44 25 49 25 28 2 -49 33 -131 58
-155 41 -38 79 -32 130 21 l43 45 0 -75 0 -75 -49 -47 c-54 -52 -67 -84 -57
-138 8 -43 63 -100 102 -108 44 -8 92 17 108 55 8 18 17 92 21 163 7 119 10
133 35 170 39 56 93 167 123 252 22 60 24 77 16 108 -6 21 -14 33 -18 29 -4
-5 -20 -44 -35 -88 -29 -81 -92 -223 -104 -230 -4 -2 -3 89 1 202 7 170 6 208
-5 217 -9 7 -13 25 -10 55 3 37 -1 50 -21 72 -31 33 -94 53 -142 44 -82 -16
-162 -133 -190 -280 -25 -131 -94 -304 -117 -290 -7 5 -8 66 -3 203 4 108 4
218 0 244 -9 58 -43 111 -74 115 -43 7 -75 -39 -136 -197 l-34 -86 -3 135 -3
135 -27 12 c-34 17 -73 3 -82 -29 -3 -13 -9 -79 -12 -148 -6 -112 -11 -137
-46 -235 -47 -130 -66 -164 -79 -144 -5 8 -6 127 -2 276 l6 262 -26 12 c-31
14 -72 5 -81 -18 -4 -9 -11 -76 -17 -147 -8 -101 -18 -156 -45 -242 -20 -61
-43 -122 -52 -135 l-16 -23 -7 33 c-4 19 0 210 8 425 13 370 13 391 -3 403
-24 18 -79 16 -94 -3z m-950 -413 c0 -25 -9 -64 -19 -86 -22 -48 -106 -143
-117 -132 -10 9 12 152 32 211 9 24 27 57 41 72 l26 28 18 -23 c13 -15 19 -39
19 -70z m428 77 c21 -21 14 -77 -13 -103 -13 -14 -30 -25 -37 -25 -7 -1 -1 -7
13 -15 l27 -14 -5 -133 c-5 -122 -8 -137 -33 -183 -31 -56 -54 -68 -64 -33 -3
13 -6 78 -6 145 0 172 33 327 77 361 21 15 26 15 41 0z m1720 0 c21 -21 14
-77 -13 -103 -13 -14 -30 -25 -37 -25 -7 -1 -1 -7 14 -15 l27 -15 -6 -132 c-4
-108 -10 -141 -27 -177 -23 -46 -50 -71 -63 -57 -14 13 -16 257 -3 336 24 147
69 227 108 188z m-1230 -36 c3 -26 -4 -40 -33 -69 -37 -37 -35 -52 8 -53 15 0
17 -12 17 -118 0 -113 -2 -122 -31 -181 -29 -58 -52 -82 -65 -68 -17 16 -24
162 -14 276 16 175 46 256 94 249 16 -2 22 -12 24 -36z m1198 -816 c-8 -61
-17 -74 -36 -51 -15 19 -6 72 17 97 23 26 26 17 19 -46z"/>
<path d="M4009 4393 c-8 -9 -16 -43 -19 -77 -4 -54 -8 -61 -27 -64 -29 -4 -31
-38 -3 -45 20 -5 21 -11 18 -349 -3 -315 -2 -346 15 -380 20 -39 63 -64 95
-53 24 7 69 75 111 165 l30 65 0 -91 c1 -102 20 -144 66 -144 36 0 55 38 61
122 6 78 19 127 66 251 17 45 35 76 41 74 9 -3 12 -56 12 -183 0 -150 3 -184
17 -210 19 -36 66 -59 98 -49 24 8 81 91 106 157 18 46 34 70 34 50 0 -6 10
-37 21 -68 59 -158 192 -198 289 -86 46 53 136 224 146 277 7 38 -1 85 -15 85
-5 0 -19 -30 -32 -67 -33 -101 -74 -177 -122 -228 -49 -50 -84 -58 -116 -26
-23 23 -51 110 -51 156 0 29 2 31 34 27 41 -5 99 24 142 70 118 124 86 319
-56 342 -109 17 -210 -90 -241 -256 -15 -83 -56 -211 -86 -272 -39 -78 -47
-46 -38 169 4 101 4 206 0 234 -15 109 -87 154 -129 82 -11 -19 -42 -94 -68
-165 l-49 -131 6 307 c6 299 5 307 -14 317 -34 19 -69 13 -87 -13 -13 -20 -18
-76 -26 -293 l-10 -268 -35 -105 c-42 -124 -70 -183 -83 -175 -11 7 -14 479
-3 588 l6 67 37 0 c41 0 77 21 66 38 -4 7 -29 12 -57 12 l-49 0 0 68 c0 40 -5
73 -12 80 -17 17 -73 15 -89 -5z m981 -412 c0 -25 -9 -64 -19 -86 -22 -48
-106 -143 -117 -132 -11 10 14 161 37 224 11 29 30 60 42 68 20 14 23 14 40
-6 11 -13 17 -38 17 -68z"/>
<path d="M5555 4387 c-20 -31 -35 -314 -35 -663 0 -259 0 -261 23 -282 13 -12
32 -22 44 -22 37 0 53 31 59 116 6 83 18 129 67 257 16 44 34 76 41 74 8 -3
11 -57 11 -183 0 -150 3 -184 17 -210 19 -35 66 -59 97 -49 32 10 74 76 126
200 l17 40 14 -52 c28 -107 75 -169 148 -193 79 -26 154 28 228 165 l33 60 5
-92 c5 -100 22 -133 66 -133 39 0 54 38 64 157 11 135 58 323 80 323 5 0 10
-63 12 -139 3 -131 4 -141 27 -165 47 -50 126 -43 175 15 27 31 36 28 36 -11
0 -47 31 -132 57 -156 49 -46 109 -23 163 63 l27 43 6 -41 c12 -88 93 -120
140 -56 36 47 80 139 116 241 28 79 30 93 20 124 -14 44 -17 40 -70 -115 -22
-65 -48 -129 -57 -143 l-16 -25 -7 30 c-4 17 -5 73 -3 125 25 610 26 694 8
707 -24 18 -79 16 -94 -3 -9 -9 -15 -55 -17 -122 -5 -147 -7 -152 -44 -152
-101 0 -188 -107 -224 -278 -16 -79 -51 -156 -83 -185 -20 -18 -21 -18 -31 2
-7 12 -11 93 -11 209 0 176 -1 191 -21 216 -14 17 -30 26 -50 26 -40 0 -78
-61 -110 -177 l-24 -88 -5 125 c-5 123 -5 125 -32 137 -30 15 -72 4 -81 -21
-4 -9 -9 -75 -12 -148 -9 -185 -50 -300 -138 -393 -49 -50 -84 -58 -116 -26
-23 23 -51 110 -51 156 0 29 2 31 34 27 61 -7 151 57 190 136 27 52 31 125 12
177 -46 120 -182 135 -274 30 -41 -46 -64 -98 -85 -190 -29 -125 -110 -326
-125 -310 -4 4 -7 113 -7 243 0 215 -2 240 -20 275 -19 37 -51 55 -80 44 -20
-8 -56 -84 -100 -212 -20 -60 -40 -112 -43 -115 -2 -3 -2 133 2 302 7 299 6
307 -13 317 -33 18 -69 13 -86 -12z m735 -406 c0 -25 -9 -64 -19 -86 -22 -48
-106 -143 -117 -132 -10 9 12 152 32 211 9 24 27 57 41 72 l26 28 18 -23 c13
-15 19 -39 19 -70z m878 41 c3 -26 -4 -40 -33 -69 -37 -37 -35 -52 8 -53 15 0
17 -12 17 -118 0 -113 -2 -122 -31 -181 -29 -58 -52 -82 -65 -68 -16 16 -24
169 -14 276 15 171 48 256 94 249 16 -2 22 -12 24 -36z"/>
<path d="M2460 4313 c-26 -9 -40 -35 -40 -74 0 -84 91 -125 126 -57 22 43 5
102 -36 123 -16 8 -30 15 -32 14 -2 0 -10 -3 -18 -6z"/>
<path d="M7580 3495 l0 -75 75 0 75 0 0 75 0 75 -75 0 -75 0 0 -75z"/>
</g>
</svg>
